<svg width="16" height="16" viewBox="0 0 16 16" fill="none" xmlns="http://www.w3.org/2000/svg">
<path fill-rule="evenodd" clip-rule="evenodd" d="M14.8966 3.03448H15.4483C15.7526 3.03539 15.9991 3.28188 16 3.58621V14.069C15.9991 14.3733 15.7526 14.6198 15.4483 14.6207H9.37931C9.37931 15.3825 8.76177 16 8 16C7.23823 16 6.62069 15.3825 6.62069 14.6207H0.551724C0.247393 14.6198 0.00090891 14.3733 0 14.069V3.58621C0.00090891 3.28188 0.247393 3.03539 0.551724 3.03448H14.8966Z" fill="#CB8252"/>
<path fill-rule="evenodd" clip-rule="evenodd" d="M7.44834 3.03448V2.75862C7.44834 2.30155 7.07782 1.93103 6.62076 1.93103H1.37938C1.22702 1.93103 1.10352 2.05454 1.10352 2.20689V13.2414C1.10352 13.3937 1.22702 13.5172 1.37938 13.5172H7.17248C7.32484 13.5172 7.44834 13.3937 7.44834 13.2414V3.03448Z" fill="#ECF0F1"/>
<path fill-rule="evenodd" clip-rule="evenodd" d="M10.4828 1.93103H9.37934C8.92228 1.93103 8.55176 2.30155 8.55176 2.75862V13.2414C8.55176 13.3937 8.67527 13.5172 8.82762 13.5172H14.6207C14.7731 13.5172 14.8966 13.3937 14.8966 13.2414V2.20689C14.8966 2.05454 14.7731 1.93103 14.6207 1.93103H10.4828Z" fill="#ECF0F1"/>
<path d="M8.82749 3.03448H7.17233C6.86762 3.03448 6.62061 3.2815 6.62061 3.58621C6.62061 3.89091 6.86762 4.13793 7.17233 4.13793H8.82749C9.1322 4.13793 9.37921 3.89091 9.37921 3.58621C9.37921 3.2815 9.1322 3.03448 8.82749 3.03448Z" fill="#95A5A5"/>
<path d="M8.82749 5.79315H7.17233C6.86762 5.79315 6.62061 6.04017 6.62061 6.34487C6.62061 6.64958 6.86762 6.8966 7.17233 6.8966H8.82749C9.1322 6.8966 9.37921 6.64958 9.37921 6.34487C9.37921 6.04017 9.1322 5.79315 8.82749 5.79315Z" fill="#95A5A5"/>
<path d="M8.82749 8.55176H7.17233C6.86762 8.55176 6.62061 8.79878 6.62061 9.10349C6.62061 9.4082 6.86762 9.65522 7.17233 9.65522H8.82749C9.1322 9.65522 9.37921 9.4082 9.37921 9.10349C9.37921 8.79878 9.1322 8.55176 8.82749 8.55176Z" fill="#95A5A5"/>
<path d="M8.82749 11.3104H7.17233C6.86762 11.3104 6.62061 11.5574 6.62061 11.8621C6.62061 12.1668 6.86762 12.4138 7.17233 12.4138H8.82749C9.1322 12.4138 9.37921 12.1668 9.37921 11.8621C9.37921 11.5574 9.1322 11.3104 8.82749 11.3104Z" fill="#95A5A5"/>
<path d="M13.5174 1.37927H10.7588C10.6064 1.37927 10.4829 1.50278 10.4829 1.65513V2.75858C10.4829 2.91094 10.6064 3.03444 10.7588 3.03444H13.5174C13.6697 3.03444 13.7933 2.91094 13.7933 2.75858V1.65513C13.7933 1.50278 13.6697 1.37927 13.5174 1.37927Z" fill="#95A5A5"/>
<path fill-rule="evenodd" clip-rule="evenodd" d="M11.5861 0H12.6896C12.9943 0 13.2413 0.247015 13.2413 0.551724V1.37931H11.0344V0.551724C11.0344 0.247015 11.2814 0 11.5861 0Z" fill="#FB7B76"/>
<path fill-rule="evenodd" clip-rule="evenodd" d="M12.8469 10.2068L12.3834 11.1586C12.3362 11.2507 12.2414 11.3086 12.1379 11.3086C12.0344 11.3086 11.9396 11.2507 11.8924 11.1586L11.429 10.2068H12.8469Z" fill="#35495E"/>
<path fill-rule="evenodd" clip-rule="evenodd" d="M13.5172 8.82758L12.8468 10.2069H11.4289L10.7585 8.82758H13.5172Z" fill="#FAC176"/>
<path fill-rule="evenodd" clip-rule="evenodd" d="M10.7585 3.03448H13.5172V8.82759H10.7585V3.03448Z" fill="#F0C419"/>
<path fill-rule="evenodd" clip-rule="evenodd" d="M12.4138 3.03448V4.13793C12.4138 4.29028 12.2903 4.41379 12.1379 4.41379C11.9856 4.41379 11.8621 4.29028 11.8621 4.13793V3.03448H12.4138Z" fill="#F29C1F"/>
<path fill-rule="evenodd" clip-rule="evenodd" d="M12.4138 5.24138V8.82758H11.8621V5.24138C11.8621 5.08902 11.9856 4.96552 12.1379 4.96552C12.2903 4.96552 12.4138 5.08902 12.4138 5.24138Z" fill="#F29C1F"/>
<path fill-rule="evenodd" clip-rule="evenodd" d="M5.24127 3.86209H2.48265C2.33029 3.86209 2.20679 3.73858 2.20679 3.58622C2.20679 3.43387 2.33029 3.31036 2.48265 3.31036H5.24127C5.39362 3.31036 5.51713 3.43387 5.51713 3.58622C5.51713 3.73858 5.39362 3.86209 5.24127 3.86209Z" fill="#35495E"/>
<path fill-rule="evenodd" clip-rule="evenodd" d="M3.03437 5.51724H2.48265C2.33029 5.51724 2.20679 5.39374 2.20679 5.24138C2.20679 5.08902 2.33029 4.96552 2.48265 4.96552H3.03437C3.18672 4.96552 3.31023 5.08902 3.31023 5.24138C3.31023 5.39374 3.18672 5.51724 3.03437 5.51724Z" fill="#35495E"/>
<path fill-rule="evenodd" clip-rule="evenodd" d="M5.24137 5.51724H4.13792C3.98557 5.51724 3.86206 5.39374 3.86206 5.24138C3.86206 5.08902 3.98557 4.96552 4.13792 4.96552H5.24137C5.39373 4.96552 5.51723 5.08902 5.51723 5.24138C5.51723 5.39374 5.39373 5.51724 5.24137 5.51724Z" fill="#35495E"/>
<path fill-rule="evenodd" clip-rule="evenodd" d="M5.24127 7.17246H2.48265C2.33029 7.17246 2.20679 7.04895 2.20679 6.89659C2.20679 6.74424 2.33029 6.62073 2.48265 6.62073H5.24127C5.39362 6.62073 5.51713 6.74424 5.51713 6.89659C5.51713 7.04895 5.39362 7.17246 5.24127 7.17246Z" fill="#35495E"/>
<path fill-rule="evenodd" clip-rule="evenodd" d="M5.24127 10.4827H2.48265C2.33029 10.4827 2.20679 10.3592 2.20679 10.2069C2.20679 10.0545 2.33029 9.93103 2.48265 9.93103H5.24127C5.39362 9.93103 5.51713 10.0545 5.51713 10.2069C5.51713 10.3592 5.39362 10.4827 5.24127 10.4827Z" fill="#35495E"/>
<path fill-rule="evenodd" clip-rule="evenodd" d="M3.03437 8.82759H2.48265C2.33029 8.82759 2.20679 8.70409 2.20679 8.55174C2.20679 8.39938 2.33029 8.27588 2.48265 8.27588H3.03437C3.18672 8.27588 3.31023 8.39938 3.31023 8.55174C3.31023 8.70409 3.18672 8.82759 3.03437 8.82759Z" fill="#35495E"/>
<path fill-rule="evenodd" clip-rule="evenodd" d="M5.24137 8.82759H4.13792C3.98557 8.82759 3.86206 8.70409 3.86206 8.55174C3.86206 8.39938 3.98557 8.27588 4.13792 8.27588H5.24137C5.39373 8.27588 5.51723 8.39938 5.51723 8.55174C5.51723 8.70409 5.39373 8.82759 5.24137 8.82759Z" fill="#35495E"/>
</svg>
