<svg width="14" height="14" viewBox="0 0 14 14" fill="none" xmlns="http://www.w3.org/2000/svg">
<g clip-path="url(#clip0)">
<path d="M13.1058 3.86979V10.1177C13.1058 10.2993 13.0303 10.4536 12.9113 10.5677C12.9107 10.568 12.9104 10.5686 12.9098 10.5689C12.8137 10.6614 12.9701 10.5436 7.00001 14L1.2039 10.6535C1.01225 10.543 0.894287 10.3387 0.894287 10.1177V3.92877C0.894287 3.77253 0.936014 3.62233 1.0117 3.49168C1.01285 3.48965 1.014 3.48793 1.01515 3.48594C1.09026 3.35819 1.19816 3.24941 1.3308 3.17288L6.67604 0.0867482C6.87661 -0.028916 7.1235 -0.028916 7.32406 0.0867482L7.85409 0.392917L12.7202 3.20222C12.8394 3.27129 12.9354 3.36882 13.0022 3.48391C13.069 3.5993 13.1058 3.73195 13.1058 3.86979Z" fill="#96C8EF"/>
<path d="M13.1058 3.86982V10.1177C13.1058 10.2993 13.0303 10.4536 12.9113 10.5678C12.9107 10.5681 12.9104 10.5686 12.9098 10.5689C12.8137 10.6614 12.9701 10.5436 7.00001 14L1.2039 10.6535C1.01225 10.543 0.894287 10.3387 0.894287 10.1177V3.9288C0.894287 3.77256 0.936014 3.62236 1.0117 3.49171L1.75756 3.91817L7.00004 6.91594L13.0022 3.48395C13.069 3.59934 13.1058 3.73198 13.1058 3.86982Z" fill="#3D9AE2"/>
<path d="M1.01515 3.48596L7.00002 6.91593V12.9837L0.894287 9.45789V3.92879C0.894287 3.77255 0.936014 3.62235 1.0117 3.4917C1.01285 3.48968 1.014 3.48796 1.01515 3.48596Z" fill="#5AAAE7"/>
<path d="M13.1058 3.86982V10.1177C13.1058 10.3387 12.9878 10.543 12.7961 10.6535L7 14V6.91594L13.0022 3.48395C13.0689 3.59934 13.1058 3.73198 13.1058 3.86982Z" fill="#1A6FB0"/>
<path d="M13.1058 3.86982V9.10139C13.1058 9.32238 12.9878 9.5267 12.7961 9.63719L7 12.9837V6.91594L13.0022 3.48395C13.0689 3.59934 13.1058 3.73198 13.1058 3.86982Z" fill="#1E81CE"/>
</g>
<defs>
<clipPath id="clip0">
<rect width="14" height="14" fill="white"/>
</clipPath>
</defs>
</svg>
