<svg width="16" height="16" viewBox="0 0 16 16" fill="none" xmlns="http://www.w3.org/2000/svg">
<path d="M15 13.5H1C0.448 13.5 0 13.052 0 12.5V3.5C0 2.948 0.448 2.5 1 2.5H15C15.552 2.5 16 2.948 16 3.5V12.5C16 13.052 15.552 13.5 15 13.5Z" fill="#1E88E5"/>
<path d="M15 13.5H1C0.439 13.5 0 13.061 0 12.5C0 12.341 0.076 12.191 0.204 12.097L7.704 7.097C7.792 7.032 7.896 7 8 7C8.104 7 8.208 7.032 8.296 7.097L15.796 12.097C15.924 12.191 16 12.341 16 12.5C16 13.061 15.561 13.5 15 13.5Z" fill="#2196F3"/>
<path d="M15 2.5H1C0.439 2.5 0 2.939 0 3.5C0 3.659 0.076 3.809 0.204 3.903L7.708 9.29C7.882 9.415 8.117 9.415 8.291 9.29L15.795 3.903C15.924 3.809 16 3.659 16 3.5C16 2.939 15.561 2.5 15 2.5Z" fill="#64B5F6"/>
</svg>
