<svg width="14" height="14" viewBox="0 0 14 14" fill="none" xmlns="http://www.w3.org/2000/svg">
<path d="M14 5.13335C14 9.33335 7 12.6 7 12.6C7 12.6 3.0625 10.7625 1.09375 8.0719C0.4375 7.17502 0 6.18335 0 5.13335C0 3.8614 0.636125 2.73817 1.60768 2.06385C3.40058 0.819761 5.91645 1.37134 7 3.32502C8.47949 0.657449 12.3633 0.795453 13.6512 3.55572C13.6639 3.56849 14 4.25698 14 5.13335Z" fill="#EA8692"/>
<path d="M13.7083 4.18047C13.7083 6.10547 12.1041 7.81662 10.5 9.04648C8.60899 10.4963 5.9888 10.5043 4.09634 9.05641C2.53482 7.86168 0.875 6.13801 0.875 4.18047C0.875 3.3813 1.14887 2.6463 1.60768 2.06385C3.40058 0.819761 5.91645 1.37134 7 3.32502C8.47689 0.662152 12.3612 0.790941 13.6512 3.55572C13.654 3.55851 13.7083 3.84196 13.7083 4.18047Z" fill="#FE929F"/>
<path d="M12.4296 4.25779C12.3326 4.01897 12.0604 3.90401 11.8217 4.00095C11.5829 4.09791 11.4679 4.37012 11.5648 4.60888C12.11 5.95182 10.2778 7.66472 9.12674 8.55427C8.7754 8.82579 8.9687 9.3902 9.41243 9.3902C9.5121 9.3902 9.61253 9.3584 9.69746 9.29274C11.2902 8.06183 13.1838 6.11525 12.4296 4.25779Z" fill="#FFA4B8"/>
<path d="M10.6167 3.77758C10.7972 3.8242 10.8291 3.86964 10.9666 3.86964C11.1509 3.86964 11.3255 3.75969 11.3991 3.57838C11.496 3.33956 11.381 3.06738 11.1422 2.97045C11.0474 2.93195 10.9491 2.89946 10.8501 2.8739C10.6005 2.80942 10.346 2.95951 10.2815 3.20905C10.2171 3.45858 10.3672 3.71313 10.6167 3.77758Z" fill="#FFA4B8"/>
</svg>
