<svg width="16" height="16" viewBox="0 0 16 16" fill="none" xmlns="http://www.w3.org/2000/svg">
<g clip-path="url(#clip0)">
<path d="M10.4657 4.38646L6.90385 0.607411C6.14047 -0.20247 4.90406 -0.20247 4.14068 0.607411L0.578809 4.38646C-0.654269 5.69477 0.217741 7.93396 1.96039 7.93396H2.44469L2.44469 16.1626H8.59983L8.59984 7.93396H9.08414C10.8268 7.93396 11.6989 5.69477 10.4657 4.38646Z" fill="#D8D8D8"/>
<path d="M2.88501 4.38704C1.65211 5.69548 2.5243 7.93448 4.26653 7.93448H4.75131V16.1632H2.44349V7.93454H1.95943C0.216479 7.93454 -0.65571 5.69554 0.577904 4.3871L4.1396 0.608184C4.83146 -0.125338 5.91067 -0.194354 6.67542 0.401202C6.59533 0.462555 6.51959 0.531507 6.44748 0.608184L2.88501 4.38704Z" fill="#CDCDCD"/>
<path d="M13.7961 6.28273C13.7961 7.12989 13.5102 7.8632 12.9461 8.46261C12.3821 9.06193 11.6918 9.36574 10.8945 9.36574H10.8931C10.0968 9.36544 9.40698 9.06163 8.84292 8.46261C8.27877 7.8632 7.99292 7.12989 7.99292 6.28273C7.99292 5.43585 8.27877 4.70245 8.84292 4.10314C9.40671 3.50402 10.0965 3.20031 10.8931 3.20001H10.8945C11.6915 3.20001 12.3818 3.50382 12.9461 4.10314C13.5102 4.70245 13.7961 5.43585 13.7961 6.28273Z" fill="#FFDB2D"/>
<path d="M15.9961 13.7986C15.9961 14.467 15.796 15.0081 15.4019 15.4066C15.0123 15.8005 14.4972 16 13.8708 16H8.07007C7.44369 16 6.92852 15.8005 6.53928 15.4066C6.14488 15.0078 5.94507 14.4668 5.94507 13.7986C5.94507 13.5416 5.95306 13.2873 5.96906 13.0428C5.98533 12.7928 6.01823 12.5207 6.06676 12.2337C6.11566 11.9443 6.17852 11.6708 6.2538 11.4208C6.33192 11.162 6.43762 10.9067 6.56841 10.6622C6.70426 10.4084 6.86382 10.1873 7.04268 10.0053C7.23018 9.81473 7.45941 9.66171 7.72439 9.55018C7.98845 9.43925 8.28119 9.383 8.59442 9.383C8.71731 9.383 8.83634 9.43641 9.06575 9.5952C9.20931 9.69471 9.37476 9.808 9.55738 9.93202C9.71511 10.0389 9.92871 10.1391 10.1928 10.2296C10.4248 10.3094 10.6604 10.3539 10.8931 10.3616C10.9188 10.3626 10.9444 10.3631 10.9701 10.3631C11.2285 10.3631 11.4899 10.3181 11.7476 10.2296C12.0117 10.1391 12.2256 10.0389 12.3832 9.93202C12.5678 9.80673 12.7332 9.69354 12.8747 9.5955C13.1043 9.43641 13.2231 9.383 13.3463 9.383C13.6592 9.383 13.952 9.43925 14.2162 9.55018C14.4812 9.66171 14.7104 9.81503 14.8977 10.0053C15.0769 10.1873 15.2364 10.4084 15.3722 10.6622C15.5031 10.9069 15.6089 11.162 15.6868 11.4205C15.7622 11.6708 15.8252 11.9443 15.8741 12.2339C15.9224 12.5212 15.9554 12.7932 15.9715 13.0426C15.9878 13.2863 15.9958 13.5406 15.9961 13.7986Z" fill="#E2E2E2"/>
<path d="M10.8944 9.36574H10.8931V3.20001H10.8944C11.6915 3.20001 12.3818 3.50382 12.9461 4.10314C13.5102 4.70245 13.7961 5.43585 13.7961 6.28273C13.7961 7.12989 13.5102 7.8632 12.9461 8.46261C12.382 9.06193 11.6918 9.36574 10.8944 9.36574Z" fill="#FFCA00"/>
<path d="M15.996 13.7986C15.996 14.467 15.7959 15.0081 15.4018 15.4066C15.0123 15.8005 14.4971 16 13.8707 16H10.8931V10.3616C10.9187 10.3626 10.9444 10.3631 10.97 10.3631C11.2285 10.3631 11.4898 10.3181 11.7476 10.2296C12.0116 10.1391 12.2255 10.0389 12.3831 9.93202C12.5677 9.80673 12.7331 9.69354 12.8746 9.5955C13.1042 9.43641 13.223 9.383 13.3462 9.383C13.6592 9.383 13.9519 9.43925 14.2161 9.55018C14.4811 9.66171 14.7103 9.81503 14.8977 10.0053C15.0768 10.1873 15.2364 10.4084 15.3721 10.6622C15.503 10.9069 15.6089 11.162 15.6867 11.4205C15.7621 11.6708 15.8251 11.9443 15.874 12.2339C15.9223 12.5212 15.9553 12.7932 15.9715 13.0426C15.9877 13.2863 15.9957 13.5406 15.996 13.7986Z" fill="#D8D8D8"/>
</g>
<defs>
<clipPath id="clip0">
<rect width="16" height="16" fill="white"/>
</clipPath>
</defs>
</svg>
