<svg width="16" height="16" viewBox="0 0 16 16" fill="none" xmlns="http://www.w3.org/2000/svg">
<g clip-path="url(#clip0)">
<path d="M15.2727 5.81819H10.1818V0.727281C10.1818 0.325563 9.85619 0 9.45453 0H8H6.54547C6.14381 0 5.81819 0.325563 5.81819 0.727281V5.81819H0.727281C0.325625 5.81819 0 6.14375 0 6.54547V9.45456C0 9.85622 0.325625 10.1818 0.727281 10.1818H5.81819V15.2727C5.81819 15.6744 6.14381 16 6.54547 16H8H9.45453C9.85619 16 10.1818 15.6744 10.1818 15.2727V10.1818H15.2727C15.6744 10.1818 16 9.85619 16 9.45453V6.54544C16 6.14375 15.6744 5.81819 15.2727 5.81819Z" fill="#A4E276"/>
<path d="M6.54547 0C6.14381 0 5.81819 0.325563 5.81819 0.727281V5.81819H0.727281C0.325625 5.81819 0 6.14375 0 6.54547V9.45456C0 9.85622 0.325625 10.1818 0.727281 10.1818H5.81819V15.2727C5.81819 15.6744 6.14381 16 6.54547 16H8V0H6.54547Z" fill="#64C37D"/>
</g>
<defs>
<clipPath id="clip0">
<rect width="16" height="16" fill="white"/>
</clipPath>
</defs>
</svg>
