<svg width="14" height="14" viewBox="0 0 14 14" fill="none" xmlns="http://www.w3.org/2000/svg">
<path d="M7 14C10.866 14 14 10.866 14 7C14 3.13401 10.866 0 7 0C3.13401 0 0 3.13401 0 7C0 10.866 3.13401 14 7 14Z" fill="#FFD54F"/>
<path d="M4.08329 6.41665C4.72762 6.41665 5.24995 5.89432 5.24995 5.24998C5.24995 4.60565 4.72762 4.08331 4.08329 4.08331C3.43896 4.08331 2.91663 4.60565 2.91663 5.24998C2.91663 5.89432 3.43896 6.41665 4.08329 6.41665Z" fill="#6D4C41"/>
<path d="M9.91666 6.41665C10.561 6.41665 11.0833 5.89432 11.0833 5.24998C11.0833 4.60565 10.561 4.08331 9.91666 4.08331C9.27233 4.08331 8.75 4.60565 8.75 5.24998C8.75 5.89432 9.27233 6.41665 9.91666 6.41665Z" fill="#6D4C41"/>
<path d="M7 12.2499C4.64509 12.2499 2.55442 10.8114 1.91567 8.75111C1.84392 8.52011 1.97342 8.27511 2.20384 8.20394C2.43484 8.13219 2.67984 8.26169 2.751 8.4921C3.27775 10.1896 5.02484 11.3749 7 11.3749C8.97517 11.3749 10.7223 10.1896 11.249 8.4921C11.3208 8.26169 11.5663 8.13277 11.7962 8.20394C12.0272 8.27569 12.1561 8.52069 12.0843 8.75111C11.4456 10.8114 9.35492 12.2499 7 12.2499Z" fill="#6D4C41"/>
</svg>
