<svg width="16" height="16" viewBox="0 0 16 16" fill="none" xmlns="http://www.w3.org/2000/svg">
<path d="M15.8698 9.42525L14.1582 7.9155L15.8092 6.34053C15.8699 6.28266 15.8949 6.19706 15.8748 6.11587C15.8548 6.03472 15.7927 5.97041 15.712 5.94709L13.5146 5.31297L14.3267 3.18622C14.3566 3.10809 14.3422 3.02009 14.2891 2.95531C14.236 2.89056 14.1521 2.85891 14.0692 2.87228L11.8106 3.23641L11.6269 0.968875C11.6202 0.885562 11.5692 0.812156 11.4933 0.776344C11.4174 0.740531 11.328 0.747688 11.2588 0.795125L9.37551 2.08706L8.23148 0.116938C8.18945 0.0445625 8.11179 0 8.02773 0C7.94367 0 7.86604 0.0445625 7.82401 0.116938L6.51079 2.37844L4.23923 1.06741C4.16651 1.02544 4.07682 1.02525 4.00398 1.06684C3.93107 1.10844 3.88607 1.18556 3.88585 1.26912L3.88035 3.54397L1.6002 3.35603C1.5166 3.34916 1.43535 3.38719 1.38748 3.45584C1.33957 3.5245 1.33214 3.61337 1.36804 3.68894L2.34435 5.74628L0.203323 6.54881C0.124698 6.57828 0.0678541 6.64725 0.0541666 6.72972C0.0404791 6.81216 0.0721354 6.89559 0.137167 6.94856L1.90651 8.39081L0.318604 10.0286C0.260292 10.0888 0.238635 10.1753 0.261854 10.2556C0.285104 10.3359 0.349667 10.3978 0.431198 10.4179L2.65167 10.9664L1.9237 13.123C1.89695 13.2022 1.91476 13.2896 1.97039 13.3523C2.02604 13.4149 2.11107 13.4433 2.19342 13.4267L4.43592 12.9753L4.70845 15.234C4.71842 15.317 4.77223 15.3883 4.84948 15.4212C4.92679 15.4541 5.01582 15.4435 5.08307 15.3934L6.9142 14.0294L8.13467 15.8908C8.17785 15.9589 8.25307 16 8.33364 16C8.3367 16 8.33976 15.9999 8.34285 15.9998C8.42682 15.9965 8.5027 15.949 8.54185 15.875L9.6077 13.9249L11.5402 15.1428C11.6112 15.1876 11.7007 15.1912 11.7752 15.1525C11.8497 15.1138 11.8977 15.0384 11.9012 14.9549L11.9959 12.682L14.2669 12.9583C14.3502 12.9684 14.4329 12.9335 14.4834 12.8668C14.534 12.8 14.5449 12.7115 14.512 12.6346L13.6171 10.5409L15.7879 9.82209C15.8677 9.79569 15.9272 9.729 15.9441 9.64713C15.9609 9.56531 15.9326 9.48072 15.8698 9.42525Z" fill="#FFA600"/>
<path d="M7.94845 12.8013C10.6248 12.8013 12.7944 10.6333 12.7944 7.9591C12.7944 5.28485 10.6248 3.11694 7.94845 3.11694C5.27213 3.11694 3.10254 5.28485 3.10254 7.9591C3.10254 10.6333 5.27213 12.8013 7.94845 12.8013Z" fill="#FFDB2D"/>
<path d="M7.94861 3.117C7.82723 3.117 7.70698 3.1216 7.58789 3.13038C10.0957 3.31479 12.073 5.40616 12.073 7.95916C12.073 10.5121 10.0957 12.6035 7.58789 12.7879C7.70698 12.7967 7.82727 12.8013 7.94861 12.8013C10.6249 12.8013 12.7945 10.6334 12.7945 7.95919C12.7945 5.28491 10.6249 3.117 7.94861 3.117Z" fill="#FFCA00"/>
</svg>
