<svg width="16" height="16" viewBox="0 0 16 16" fill="none" xmlns="http://www.w3.org/2000/svg">
<path d="M11.7396 3.85339C11.7396 4.91235 11.3599 5.82898 10.6107 6.57825C9.86157 7.32739 8.94482 7.70715 7.88586 7.70715H7.88403C6.82642 7.70679 5.91028 7.32703 5.16113 6.57825C4.41187 5.82898 4.03223 4.91235 4.03223 3.85339C4.03223 2.7948 4.41187 1.87805 5.16113 1.12891C5.90991 0.380005 6.82605 0.000366213 7.88403 0H7.88586C8.94446 0 9.86121 0.379761 10.6107 1.12891C11.3599 1.87805 11.7396 2.7948 11.7396 3.85339Z" fill="#FFDB2D"/>
<path d="M14.6615 13.2483C14.6615 14.0837 14.3958 14.7601 13.8723 15.2583C13.355 15.7506 12.6708 16 11.8389 16H4.13477C3.30286 16 2.61865 15.7506 2.10168 15.2583C1.57788 14.7598 1.3125 14.0835 1.3125 13.2483C1.3125 12.927 1.32312 12.6091 1.34436 12.3035C1.36597 11.991 1.40967 11.6509 1.47412 11.2921C1.53906 10.9304 1.62256 10.5885 1.72253 10.276C1.82629 9.95251 1.96667 9.63342 2.14038 9.32776C2.3208 9.0105 2.53271 8.73413 2.77026 8.50659C3.01929 8.26843 3.32373 8.07715 3.67566 7.93774C4.02637 7.79907 4.41516 7.72876 4.83118 7.72876C4.99438 7.72876 5.15247 7.79553 5.45715 7.99402C5.64783 8.11841 5.86755 8.26001 6.11011 8.41504C6.31958 8.54858 6.60327 8.67383 6.95398 8.78699C7.26221 8.88672 7.57507 8.94238 7.88416 8.95203C7.91821 8.95325 7.95227 8.95386 7.98633 8.95386C8.32959 8.95386 8.67676 8.89758 9.01904 8.78699C9.36975 8.67383 9.65381 8.54858 9.86316 8.41504C10.1083 8.25842 10.328 8.11694 10.5159 7.99438C10.8208 7.79553 10.9786 7.72876 11.1422 7.72876C11.5579 7.72876 11.9467 7.79907 12.2976 7.93774C12.6495 8.07715 12.954 8.2688 13.2028 8.50659C13.4407 8.73413 13.6526 9.0105 13.8329 9.32776C14.0067 9.63367 14.1473 9.95251 14.2507 10.2756C14.3508 10.5885 14.4346 10.9304 14.4995 11.2924C14.5636 11.6515 14.6074 11.9916 14.6289 12.3032C14.6505 12.6079 14.6611 12.9258 14.6615 13.2483Z" fill="#6AA9FF"/>
<path d="M7.88611 7.70715H7.88428V0H7.88611C8.9447 0 9.86145 0.379761 10.611 1.12891C11.3601 1.87805 11.7399 2.7948 11.7399 3.85339C11.7399 4.91235 11.3601 5.82898 10.611 6.57825C9.86182 7.32739 8.94507 7.70715 7.88611 7.70715Z" fill="#FFCA00"/>
<path d="M14.6616 13.2483C14.6616 14.0837 14.3959 14.7601 13.8724 15.2583C13.3551 15.7506 12.6709 16 11.839 16H7.88428V8.95203C7.91833 8.95325 7.95239 8.95386 7.98645 8.95386C8.32971 8.95386 8.67688 8.89758 9.01917 8.78699C9.36987 8.67383 9.65393 8.54858 9.86328 8.41504C10.1084 8.25842 10.3281 8.11694 10.516 7.99438C10.8209 7.79553 10.9788 7.72876 11.1423 7.72876C11.558 7.72876 11.9468 7.79907 12.2977 7.93774C12.6497 8.07715 12.9541 8.2688 13.2029 8.50659C13.4408 8.73413 13.6527 9.0105 13.833 9.32776C14.0068 9.63367 14.1475 9.95251 14.2509 10.2756C14.351 10.5885 14.4347 10.9304 14.4996 11.2924C14.5637 11.6515 14.6075 11.9916 14.629 12.3032C14.6506 12.6079 14.6613 12.9258 14.6616 13.2483Z" fill="#2682FF"/>
</svg>
