<svg width="16" height="16" viewBox="0 0 16 16" fill="none" xmlns="http://www.w3.org/2000/svg">
<path d="M16.0001 7.13277C16.0001 7.01005 15.8685 6.9323 15.761 6.99149L12.6258 8.71764L12.3354 9.86289L12.6258 11.01L14.3129 12.2292L16.0001 12.8677V7.13277Z" fill="#454D58"/>
<path d="M12.6258 11.5906L15.761 13.3167C15.8685 13.3759 16.0001 13.2981 16.0001 13.1754V12.8677L12.6258 11.0099L12.3354 11.327L12.6258 11.5906Z" fill="#3C434C"/>
<path d="M1.21406 8.01084L0.230344 7.54484C0.123344 7.49415 0 7.57218 0 7.69059V9.85737L0.607031 9.86012L1.21406 9.28224L1.50437 8.69462L1.21406 8.01084Z" fill="#A6AEC4"/>
<path d="M0.230344 10.3289L1.21406 9.86285L1.50437 9.57254L1.21406 9.28223L0 9.85735V10.1831C0 10.3015 0.123344 10.3796 0.230344 10.3289Z" fill="#959DB0"/>
<path d="M2.49555 9.28221L1.85483 9.57252L1.21411 9.28221V8.0108H2.49555L2.78589 8.69458L2.49555 9.28221Z" fill="#454D58"/>
<path d="M1.21411 9.86288H2.49555L2.78589 9.57254L2.49555 9.28223H1.21411V9.86288Z" fill="#3C434C"/>
<path d="M9.47501 6.56952C10.9372 6.56952 12.2852 5.15593 12.2852 3.74456C12.1399 2.32074 10.9372 1.2099 9.47501 1.2099C8.01283 1.2099 6.81014 2.32077 6.66479 3.74456C6.66476 5.21931 8.01283 6.56952 9.47501 6.56952Z" fill="#454D58"/>
<path d="M4.74588 6.56949C6.01979 6.56949 6.70442 5.50959 6.70442 4.58956C6.56395 3.63374 5.7407 2.89996 4.74588 2.89996C3.75104 2.89996 2.92782 3.63374 2.78735 4.58956C2.78732 5.59849 3.50973 6.56949 4.74588 6.56949Z" fill="#454D58"/>
<path d="M3.36545 14.4999H11.7559C12.4837 14.4999 12.6258 13.8201 12.6258 13.3397V7.72971C12.6258 7.2493 12.2363 6.85986 11.7559 6.85986H3.36545C2.88504 6.85986 2.49561 7.2493 2.49561 7.72971V13.3397C2.49561 13.8201 2.71695 14.4999 3.36545 14.4999Z" fill="#A6AEC4"/>
<path d="M5.29476 11.4883H9.82667C10.1493 11.4883 10.1493 11.0535 10.1493 10.8754V8.81664C10.1493 8.63849 10.0048 8.49408 9.82667 8.49408H5.29476C5.11661 8.49408 4.97217 8.63852 4.97217 8.81664V10.8754C4.97217 11.0535 4.97217 11.4883 5.29476 11.4883Z" fill="#BED8FB"/>
<path d="M9.47507 4.73602C10.2071 4.73602 10.4233 4.16999 10.4233 3.74452C10.2992 3.33862 9.92163 3.04333 9.47507 3.04333C9.02851 3.04333 8.65101 3.33858 8.52686 3.74452C8.52686 4.1839 8.77404 4.73602 9.47507 4.73602Z" fill="#A6AEC4"/>
<path d="M4.1875 4.58959C4.1875 4.83481 4.27153 5.21931 4.74594 5.21931C5.25497 5.21931 5.30441 4.80293 5.30441 4.58959C5.19941 4.38803 4.98894 4.25018 4.74594 4.25018C4.50297 4.25018 4.2925 4.38806 4.1875 4.58959Z" fill="#A6AEC4"/>
<path d="M11.7559 14.2096H3.36545C2.88504 14.2096 2.49561 13.8201 2.49561 13.3397V13.9204C2.49561 14.4008 2.88504 14.7902 3.36545 14.7902H11.7559C12.2363 14.7902 12.6258 14.4008 12.6258 13.9204V13.3397C12.6258 13.8201 12.2363 14.2096 11.7559 14.2096Z" fill="#959DB0"/>
<path d="M9.82661 11.1979H5.29473C5.11657 11.1979 4.97217 11.0535 4.97217 10.8753V11.456C4.97217 11.6341 5.11661 11.7786 5.29473 11.7786H9.82664C10.0048 11.7786 10.1492 11.6341 10.1492 11.456V10.8753C10.1492 11.0535 10.0048 11.1979 9.82661 11.1979Z" fill="#A3CAF7"/>
<path d="M4.74581 6.27919C3.75096 6.27919 2.92774 5.54541 2.78728 4.5896C2.77334 4.68438 2.76587 4.78126 2.76587 4.87991C2.76587 5.97341 3.65231 6.85985 4.74581 6.85985C5.83927 6.85985 6.72574 5.97341 6.72574 4.87991C6.72574 4.78126 6.71827 4.68438 6.70437 4.5896C6.56384 5.54538 5.74062 6.27919 4.74581 6.27919Z" fill="#3C434C"/>
<path d="M4.74593 4.92897C4.50296 4.92897 4.29249 4.79113 4.18749 4.5896C4.14221 4.67654 4.11621 4.77513 4.11621 4.87991C4.11621 5.22769 4.39815 5.50963 4.74593 5.50963C5.09371 5.50963 5.37565 5.22769 5.37565 4.87991C5.37565 4.7751 5.34968 4.67651 5.3044 4.5896C5.19937 4.79113 4.9889 4.92897 4.74593 4.92897Z" fill="#959DB0"/>
<path d="M9.47511 6.27922C8.01293 6.27922 6.81024 5.16835 6.6649 3.74457C6.65515 3.84001 6.65015 3.93685 6.65015 4.03488C6.65015 5.59507 7.91493 6.85988 9.47514 6.85988C11.0354 6.85988 12.3001 5.5951 12.3001 4.03488C12.3001 3.93685 12.2951 3.84001 12.2854 3.74457C12.14 5.16835 10.9373 6.27922 9.47511 6.27922Z" fill="#3C434C"/>
<path d="M9.47514 4.44569C9.02858 4.44569 8.65108 4.15044 8.52692 3.74451C8.49883 3.83635 8.48364 3.93379 8.48364 4.03482C8.48364 4.58241 8.92755 5.02632 9.47514 5.02632C10.0227 5.02632 10.4666 4.58241 10.4666 4.03482C10.4666 3.93379 10.4514 3.83632 10.4234 3.74451C10.2992 4.15044 9.92171 4.44569 9.47514 4.44569Z" fill="#959DB0"/>
<path d="M8.86374 12.871C8.72987 12.871 8.62134 12.9795 8.62134 13.1134C8.62134 13.2473 8.72987 13.3558 8.86374 13.3558H9.46844C9.60231 13.3558 9.71084 13.2473 9.71084 13.1134C9.71084 12.9795 9.60231 12.871 9.46844 12.871H8.86374Z" fill="#B3E59F"/>
<path d="M7.2573 12.871C7.12342 12.871 7.01489 12.9795 7.01489 13.1134C7.01489 13.2473 7.12342 13.3558 7.2573 13.3558H7.86201C7.99589 13.3558 8.10442 13.2473 8.10442 13.1134C8.10442 12.9795 7.99589 12.871 7.86201 12.871H7.2573Z" fill="#DF667C"/>
<path d="M5.65085 12.871C5.51698 12.871 5.40845 12.9795 5.40845 13.1134C5.40845 13.2473 5.51698 13.3558 5.65085 13.3558H6.25554C6.38942 13.3558 6.49795 13.2473 6.49795 13.1134C6.49795 12.9795 6.38942 12.871 6.25554 12.871H5.65085Z" fill="#EACC73"/>
</svg>
